<svg xmlns="http://www.w3.org/2000/svg" viewBox="0 0 24 24" fill="currentColor">
  <path d="M11.75 2C12.1642 2 12.5 2.33579 12.5 2.75V3.75C12.5 4.16421 12.1642 4.5 11.75 4.5C11.3358 4.5 11 4.16421 11 3.75V2.75C11 2.33579 11.3358 2 11.75 2ZM11.75 19.5C12.1642 19.5 12.5 19.8358 12.5 20.25V21.25C12.5 21.6642 12.1642 22 11.75 22C11.3358 22 11 21.6642 11 21.25V20.25C11 19.8358 11.3358 19.5 11.75 19.5ZM4.21967 4.21967C4.51256 3.92678 4.98744 3.92678 5.28033 4.21967L6.28033 5.21967C6.57322 5.51256 6.57322 5.98744 6.28033 6.28033C5.98744 6.57322 5.51256 6.57322 5.21967 6.28033L4.21967 5.28033C3.92678 4.98744 3.92678 4.51256 4.21967 4.21967ZM17.7197 17.7197C18.0126 17.4268 18.4874 17.4268 18.7803 17.7197L19.7803 18.7197C20.0732 19.0126 20.0732 19.4874 19.7803 19.7803C19.4874 20.0732 19.0126 20.0732 18.7197 19.7803L17.7197 18.7803C17.4268 18.4874 17.4268 18.0126 17.7197 17.7197ZM2 11.75C2 11.3358 2.33579 11 2.75 11H3.75C4.16421 11 4.5 11.3358 4.5 11.75C4.5 12.1642 4.16421 12.5 3.75 12.5H2.75C2.33579 12.5 2 12.1642 2 11.75ZM19.5 11.75C19.5 11.3358 19.8358 11 20.25 11H21.25C21.6642 11 22 11.3358 22 11.75C22 12.1642 21.6642 12.5 21.25 12.5H20.25C19.8358 12.5 19.5 12.1642 19.5 11.75ZM6.28033 17.7197C6.57322 18.0126 6.57322 18.4874 6.28033 18.7803L5.28033 19.7803C4.98744 20.0732 4.51256 20.0732 4.21967 19.7803C3.92678 19.4874 3.92678 19.0126 4.21967 18.7197L5.21967 17.7197C5.51256 17.4268 5.98744 17.4268 6.28033 17.7197ZM19.7803 4.21967C20.0732 4.51256 20.0732 4.98744 19.7803 5.28033L18.7803 6.28033C18.4874 6.57322 18.0126 6.57322 17.7197 6.28033C17.4268 5.98744 17.4268 5.51256 17.7197 5.21967L18.7197 4.21967C19.0126 3.92678 19.4874 3.92678 19.7803 4.21967Z"/>
</svg>
